<svg xmlns="http://www.w3.org/2000/svg" xmlns:xlink="http://www.w3.org/1999/xlink" preserveAspectRatio="xMidYMid meet" version="1.0" viewBox="289.9 113.1 416.6 779.1" zoomAndPan="magnify" style="fill: rgb(0, 0, 0);" original_string_length="1039"><g id="__id0_s1eer7cjgr"><path d="M688.8,117.7C571.4,170,492.2,278.1,446.1,394.6c-26.9,68-43.5,139.7-55.6,211.6c-6.3,37.4-11.5,75-15.5,112.7 c-0.6,5.4-1.5,11.6-2.4,18.2c-10.9-17.8-22.8-34.9-36.2-51.2c-16.8-20.4-46.5,5.6-35.2,27.2c25.9,49.7,54.8,97.6,74.9,150.2 c7.7,20.1,37.8,28.9,49.5,6.5c16.1-30.8,31.3-62.1,46.9-93.2c7.4-14.7,17-29.8,21.3-45.8c4.2-15.7,3.6-30.3,3.5-46.1 c0-6.9-8.7-13.4-15-8.6c-12.2,9.2-23.2,16.5-33.3,28.6c-10.7,12.9-16.9,29-24.3,44c-1.1,2.3-2.3,4.6-3.4,6.9 c3.4-20.6,8-41.2,11.3-61.7c5.1-32.3,10-64.7,16.1-96.9c12.3-64.9,28.1-129.2,51.8-190.9c40.7-106.1,105.1-205.5,197.1-273.4 C706.5,125.9,699,113.1,688.8,117.7z" style="fill: rgb(255, 255, 255);"/></g></svg>